<svg xmlns="http://www.w3.org/2000/svg" viewBox="0 0 147.2 166.5" xml:space="preserve"><linearGradient id="a" gradientUnits="userSpaceOnUse" x1="73.6" y1="166.5" x2="73.6" y2="0"><stop offset="0" stop-color="#4c8bf4"/><stop offset="1" stop-color="#b393fc"/></linearGradient><path d="M88.5 0v101.8l2.7-4.4q11.4-20.9 22.3-42.1a32 32 0 0 1 16.6-15.6l17.3-7.4-.1 4.1v76a17 17 0 0 1-8.6 15.7l-20 11.1V69.8c-.2.4-2.3 3.9-2.9 5.2l-25.6 50.4a15 15 0 0 0-1.6 6.6c-.1 2.7-.7 9-.9 9.8-.2 1.1-1.5 5.8-5.9 8.8l-21.9 15.6V65.9l-22.4 43.3q-3.4 6.3-7.2 12.4a19 19 0 0 1-7.1 7.5l-23.1 13V60.2q-.2-11.1 9.3-16.4c6.1-3.3 12.6-5.8 19.5-8.9v64L59.8 41V28.9q-.1-9 7.2-14.5C72.2 10.9 87.5.8 88.5 0" fill="url(#a)"/></svg>
